<svg id="visual" viewBox="0 0 960 300" width="960" height="300" xmlns="http://www.w3.org/2000/svg" xmlns:xlink="http://www.w3.org/1999/xlink" version="1.1"><rect x="0" y="0" width="960" height="300" fill="#4c5864"></rect><path d="M0 94L22.8 94.7C45.7 95.3 91.3 96.7 137 99.3C182.7 102 228.3 106 274 106.2C319.7 106.3 365.3 102.7 411.2 99.3C457 96 503 93 548.8 89.5C594.7 86 640.3 82 686 81.7C731.7 81.3 777.3 84.7 823 85.2C868.7 85.7 914.3 83.3 937.2 82.2L960 81L960 0L937.2 0C914.3 0 868.7 0 823 0C777.3 0 731.7 0 686 0C640.3 0 594.7 0 548.8 0C503 0 457 0 411.2 0C365.3 0 319.7 0 274 0C228.3 0 182.7 0 137 0C91.3 0 45.7 0 22.8 0L0 0Z" fill="#009473"></path><path d="M0 88L22.8 86.3C45.7 84.7 91.3 81.3 137 78.5C182.7 75.7 228.3 73.3 274 74.5C319.7 75.7 365.3 80.3 411.2 80C457 79.7 503 74.3 548.8 71.5C594.7 68.7 640.3 68.3 686 71.2C731.7 74 777.3 80 823 79.2C868.7 78.3 914.3 70.7 937.2 66.8L960 63L960 0L937.2 0C914.3 0 868.7 0 823 0C777.3 0 731.7 0 686 0C640.3 0 594.7 0 548.8 0C503 0 457 0 411.2 0C365.3 0 319.7 0 274 0C228.3 0 182.7 0 137 0C91.3 0 45.7 0 22.8 0L0 0Z" fill="#00a175"></path><path d="M0 58L22.8 56.8C45.7 55.7 91.3 53.3 137 54.7C182.7 56 228.3 61 274 63C319.7 65 365.3 64 411.2 63.5C457 63 503 63 548.8 60.7C594.7 58.3 640.3 53.7 686 51C731.7 48.3 777.3 47.7 823 50.7C868.7 53.7 914.3 60.3 937.2 63.7L960 67L960 0L937.2 0C914.3 0 868.7 0 823 0C777.3 0 731.7 0 686 0C640.3 0 594.7 0 548.8 0C503 0 457 0 411.2 0C365.3 0 319.7 0 274 0C228.3 0 182.7 0 137 0C91.3 0 45.7 0 22.8 0L0 0Z" fill="#00ae76"></path><path d="M0 35L22.8 37.3C45.7 39.7 91.3 44.3 137 44.5C182.7 44.7 228.3 40.3 274 38.3C319.7 36.3 365.3 36.7 411.2 36.8C457 37 503 37 548.8 38.7C594.7 40.3 640.3 43.7 686 44.5C731.7 45.3 777.3 43.7 823 42.2C868.7 40.7 914.3 39.3 937.2 38.7L960 38L960 0L937.2 0C914.3 0 868.7 0 823 0C777.3 0 731.7 0 686 0C640.3 0 594.7 0 548.8 0C503 0 457 0 411.2 0C365.3 0 319.7 0 274 0C228.3 0 182.7 0 137 0C91.3 0 45.7 0 22.8 0L0 0Z" fill="#11bb75"></path><path d="M0 20L22.8 21.2C45.7 22.3 91.3 24.7 137 24.2C182.7 23.7 228.3 20.3 274 20.7C319.7 21 365.3 25 411.2 26.7C457 28.3 503 27.7 548.8 26C594.7 24.3 640.3 21.7 686 22.3C731.7 23 777.3 27 823 27.5C868.7 28 914.3 25 937.2 23.5L960 22L960 0L937.2 0C914.3 0 868.7 0 823 0C777.3 0 731.7 0 686 0C640.3 0 594.7 0 548.8 0C503 0 457 0 411.2 0C365.3 0 319.7 0 274 0C228.3 0 182.7 0 137 0C91.3 0 45.7 0 22.8 0L0 0Z" fill="#24c773"></path></svg>