<svg id="visual" viewBox="0 0 960 100" width="960" height="100" xmlns="http://www.w3.org/2000/svg" xmlns:xlink="http://www.w3.org/1999/xlink" version="1.1"><path d="M930 100L892 100L892 91L940 91L940 82L930 82L930 73L940 73L940 64L892 64L892 55L940 55L940 45L911 45L911 36L911 36L911 27L940 27L940 18L930 18L930 9L930 9L930 0L960 0L960 9L960 9L960 18L960 18L960 27L960 27L960 36L960 36L960 45L960 45L960 55L960 55L960 64L960 64L960 73L960 73L960 82L960 82L960 91L960 91L960 100L960 100Z" fill="#cede27"></path><path d="M825 100L844 100L844 91L892 91L892 82L834 82L834 73L786 73L786 64L786 64L786 55L873 55L873 45L834 45L834 36L834 36L834 27L815 27L815 18L863 18L863 9L796 9L796 0L931 0L931 9L931 9L931 18L941 18L941 27L912 27L912 36L912 36L912 45L941 45L941 55L893 55L893 64L941 64L941 73L931 73L931 82L941 82L941 91L893 91L893 100L931 100Z" fill="#a6cc34"></path><path d="M786 100L815 100L815 91L786 91L786 82L748 82L748 73L690 73L690 64L729 64L729 55L815 55L815 45L757 45L757 36L738 36L738 27L748 27L748 18L786 18L786 9L709 9L709 0L797 0L797 9L864 9L864 18L816 18L816 27L835 27L835 36L835 36L835 45L874 45L874 55L787 55L787 64L787 64L787 73L835 73L835 82L893 82L893 91L845 91L845 100L826 100Z" fill="#82b83d"></path><path d="M709 100L767 100L767 91L748 91L748 82L700 82L700 73L661 73L661 64L661 64L661 55L777 55L777 45L690 45L690 36L690 36L690 27L709 27L709 18L709 18L709 9L671 9L671 0L710 0L710 9L787 9L787 18L749 18L749 27L739 27L739 36L758 36L758 45L816 45L816 55L730 55L730 64L691 64L691 73L749 73L749 82L787 82L787 91L816 91L816 100L787 100Z" fill="#63a443"></path><path d="M604 100L700 100L700 91L661 91L661 82L633 82L633 73L613 73L613 64L623 64L623 55L671 55L671 45L604 45L604 36L594 36L594 27L642 27L642 18L642 18L642 9L594 9L594 0L672 0L672 9L710 9L710 18L710 18L710 27L691 27L691 36L691 36L691 45L778 45L778 55L662 55L662 64L662 64L662 73L701 73L701 82L749 82L749 91L768 91L768 100L710 100Z" fill="#478f46"></path><path d="M517 100L633 100L633 91L585 91L585 82L537 82L537 73L575 73L575 64L546 64L546 55L594 55L594 45L527 45L527 36L508 36L508 27L565 27L565 18L613 18L613 9L546 9L546 0L595 0L595 9L643 9L643 18L643 18L643 27L595 27L595 36L605 36L605 45L672 45L672 55L624 55L624 64L614 64L614 73L634 73L634 82L662 82L662 91L701 91L701 100L605 100Z" fill="#307a45"></path><path d="M489 100L565 100L565 91L556 91L556 82L508 82L508 73L498 73L498 64L527 64L527 55L556 55L556 45L489 45L489 36L469 36L469 27L517 27L517 18L546 18L546 9L469 9L469 0L547 0L547 9L614 9L614 18L566 18L566 27L509 27L509 36L528 36L528 45L595 45L595 55L547 55L547 64L576 64L576 73L538 73L538 82L586 82L586 91L634 91L634 100L518 100Z" fill="#1e6542"></path><path d="M431 100L489 100L489 91L431 91L431 82L421 82L421 73L335 73L335 64L431 64L431 55L450 55L450 45L354 45L354 36L364 36L364 27L345 27L345 18L364 18L364 9L306 9L306 0L470 0L470 9L547 9L547 18L518 18L518 27L470 27L470 36L490 36L490 45L557 45L557 55L528 55L528 64L499 64L499 73L509 73L509 82L557 82L557 91L566 91L566 100L490 100Z" fill="#14503b"></path><path d="M306 100L287 100L287 91L297 91L297 82L268 82L268 73L249 73L249 64L133 64L133 55L162 55L162 45L239 45L239 36L153 36L153 27L191 27L191 18L162 18L162 9L229 9L229 0L307 0L307 9L365 9L365 18L346 18L346 27L365 27L365 36L355 36L355 45L451 45L451 55L432 55L432 64L336 64L336 73L422 73L422 82L432 82L432 91L490 91L490 100L432 100Z" fill="#123c31"></path><path d="M0 100L0 100L0 91L0 91L0 82L0 82L0 73L0 73L0 64L0 64L0 55L0 55L0 45L0 45L0 36L0 36L0 27L0 27L0 18L0 18L0 9L0 9L0 0L230 0L230 9L163 9L163 18L192 18L192 27L154 27L154 36L240 36L240 45L163 45L163 55L134 55L134 64L250 64L250 73L269 73L269 82L298 82L298 91L288 91L288 100L307 100Z" fill="#132824"></path></svg>