<svg id="visual" viewBox="0 0 960 300" width="960" height="300" xmlns="http://www.w3.org/2000/svg" xmlns:xlink="http://www.w3.org/1999/xlink" version="1.1"><rect x="0" y="0" width="960" height="300" fill="#4c5864"></rect><path d="M0 178L12.3 180.2C24.7 182.3 49.3 186.7 74 187C98.7 187.3 123.3 183.7 148 185C172.7 186.3 197.3 192.7 221.8 192C246.3 191.3 270.7 183.7 295.2 179.5C319.7 175.3 344.3 174.7 369 177C393.7 179.3 418.3 184.7 443 185.7C467.7 186.7 492.3 183.3 517 185C541.7 186.7 566.3 193.3 591 196.7C615.7 200 640.3 200 664.8 198.3C689.3 196.7 713.7 193.3 738.2 190.7C762.7 188 787.3 186 812 183.2C836.7 180.3 861.3 176.7 886 178.3C910.7 180 935.3 187 947.7 190.5L960 194L960 301L947.7 301C935.3 301 910.7 301 886 301C861.3 301 836.7 301 812 301C787.3 301 762.7 301 738.2 301C713.7 301 689.3 301 664.8 301C640.3 301 615.7 301 591 301C566.3 301 541.7 301 517 301C492.3 301 467.7 301 443 301C418.3 301 393.7 301 369 301C344.3 301 319.7 301 295.2 301C270.7 301 246.3 301 221.8 301C197.3 301 172.7 301 148 301C123.3 301 98.7 301 74 301C49.3 301 24.7 301 12.3 301L0 301Z" fill="#009473"></path><path d="M0 201L12.3 201.3C24.7 201.7 49.3 202.3 74 204.8C98.7 207.3 123.3 211.7 148 212.3C172.7 213 197.3 210 221.8 211.8C246.3 213.7 270.7 220.3 295.2 223.7C319.7 227 344.3 227 369 225.3C393.7 223.7 418.3 220.3 443 216.3C467.7 212.3 492.3 207.7 517 209.7C541.7 211.7 566.3 220.3 591 224.2C615.7 228 640.3 227 664.8 226.2C689.3 225.3 713.7 224.7 738.2 220.7C762.7 216.7 787.3 209.3 812 207.7C836.7 206 861.3 210 886 213.3C910.7 216.7 935.3 219.3 947.7 220.7L960 222L960 301L947.7 301C935.3 301 910.7 301 886 301C861.3 301 836.7 301 812 301C787.3 301 762.7 301 738.2 301C713.7 301 689.3 301 664.8 301C640.3 301 615.7 301 591 301C566.3 301 541.7 301 517 301C492.3 301 467.7 301 443 301C418.3 301 393.7 301 369 301C344.3 301 319.7 301 295.2 301C270.7 301 246.3 301 221.8 301C197.3 301 172.7 301 148 301C123.3 301 98.7 301 74 301C49.3 301 24.7 301 12.3 301L0 301Z" fill="#00a576"></path><path d="M0 235L12.3 235.8C24.7 236.7 49.3 238.3 74 237.7C98.7 237 123.3 234 148 235.3C172.7 236.7 197.3 242.3 221.8 243.7C246.3 245 270.7 242 295.2 239C319.7 236 344.3 233 369 232.7C393.7 232.3 418.3 234.7 443 235.3C467.7 236 492.3 235 517 233.7C541.7 232.3 566.3 230.7 591 233.5C615.7 236.3 640.3 243.7 664.8 245C689.3 246.3 713.7 241.7 738.2 240.2C762.7 238.7 787.3 240.3 812 242.5C836.7 244.7 861.3 247.3 886 245.3C910.7 243.3 935.3 236.7 947.7 233.3L960 230L960 301L947.7 301C935.3 301 910.7 301 886 301C861.3 301 836.7 301 812 301C787.3 301 762.7 301 738.2 301C713.7 301 689.3 301 664.8 301C640.3 301 615.7 301 591 301C566.3 301 541.7 301 517 301C492.3 301 467.7 301 443 301C418.3 301 393.7 301 369 301C344.3 301 319.7 301 295.2 301C270.7 301 246.3 301 221.8 301C197.3 301 172.7 301 148 301C123.3 301 98.7 301 74 301C49.3 301 24.7 301 12.3 301L0 301Z" fill="#0ab676"></path><path d="M0 279L12.3 278.2C24.7 277.3 49.3 275.7 74 273C98.7 270.3 123.3 266.7 148 265.5C172.7 264.3 197.3 265.7 221.8 268C246.3 270.3 270.7 273.7 295.2 274.8C319.7 276 344.3 275 369 273.8C393.7 272.7 418.3 271.3 443 271.3C467.7 271.3 492.3 272.7 517 271.8C541.7 271 566.3 268 591 265.8C615.7 263.7 640.3 262.3 664.8 265C689.3 267.7 713.7 274.3 738.2 275.2C762.7 276 787.3 271 812 268C836.7 265 861.3 264 886 266C910.7 268 935.3 273 947.7 275.5L960 278L960 301L947.7 301C935.3 301 910.7 301 886 301C861.3 301 836.7 301 812 301C787.3 301 762.7 301 738.2 301C713.7 301 689.3 301 664.8 301C640.3 301 615.7 301 591 301C566.3 301 541.7 301 517 301C492.3 301 467.7 301 443 301C418.3 301 393.7 301 369 301C344.3 301 319.7 301 295.2 301C270.7 301 246.3 301 221.8 301C197.3 301 172.7 301 148 301C123.3 301 98.7 301 74 301C49.3 301 24.7 301 12.3 301L0 301Z" fill="#24c773"></path></svg>