<svg id="visual" viewBox="0 0 960 150" width="960" height="150" xmlns="http://www.w3.org/2000/svg" xmlns:xlink="http://www.w3.org/1999/xlink" version="1.1"><rect x="0" y="0" width="960" height="150" fill="#931C1C"></rect><path d="M0 48L107 44L213 52L320 51L427 60L533 46L640 50L747 54L853 57L960 47L960 151L853 151L747 151L640 151L533 151L427 151L320 151L213 151L107 151L0 151Z" fill="#11f50a"></path><path d="M0 58L107 69L213 74L320 65L427 65L533 67L640 72L747 71L853 71L960 74L960 151L853 151L747 151L640 151L533 151L427 151L320 151L213 151L107 151L0 151Z" fill="#86ce00"></path><path d="M0 88L107 78L213 80L320 79L427 77L533 80L640 81L747 84L853 87L960 81L960 151L853 151L747 151L640 151L533 151L427 151L320 151L213 151L107 151L0 151Z" fill="#a3a700"></path><path d="M0 97L107 88L213 88L320 94L427 98L533 97L640 98L747 89L853 100L960 86L960 151L853 151L747 151L640 151L533 151L427 151L320 151L213 151L107 151L0 151Z" fill="#a78400"></path><path d="M0 101L107 101L213 113L320 111L427 109L533 108L640 103L747 109L853 103L960 113L960 151L853 151L747 151L640 151L533 151L427 151L320 151L213 151L107 151L0 151Z" fill="#a16200"></path><path d="M0 117L107 123L213 120L320 118L427 117L533 126L640 125L747 123L853 117L960 126L960 151L853 151L747 151L640 151L533 151L427 151L320 151L213 151L107 151L0 151Z" fill="#963f00"></path><path d="M0 138L107 132L213 138L320 136L427 132L533 131L640 139L747 130L853 128L960 130L960 151L853 151L747 151L640 151L533 151L427 151L320 151L213 151L107 151L0 151Z" fill="#871400"></path></svg>