<svg id="visual" viewBox="0 0 960 300" width="960" height="300" xmlns="http://www.w3.org/2000/svg" xmlns:xlink="http://www.w3.org/1999/xlink" version="1.1"><rect x="0" y="0" width="960" height="300" fill="#4c5864"></rect><path d="M0 204L22.8 203.3C45.7 202.7 91.3 201.3 137 198.7C182.7 196 228.3 192 274 191.8C319.7 191.7 365.3 195.3 411.2 198.7C457 202 503 205 548.8 208.5C594.7 212 640.3 216 686 216.3C731.7 216.7 777.3 213.3 823 212.8C868.7 212.3 914.3 214.7 937.2 215.8L960 217L960 301L937.2 301C914.3 301 868.7 301 823 301C777.3 301 731.7 301 686 301C640.3 301 594.7 301 548.8 301C503 301 457 301 411.2 301C365.3 301 319.7 301 274 301C228.3 301 182.7 301 137 301C91.3 301 45.7 301 22.8 301L0 301Z" fill="#009473"></path><path d="M0 210L22.8 211.7C45.7 213.3 91.3 216.7 137 219.5C182.7 222.3 228.3 224.7 274 223.5C319.7 222.3 365.3 217.7 411.2 218C457 218.3 503 223.7 548.8 226.5C594.7 229.3 640.3 229.7 686 226.8C731.7 224 777.3 218 823 218.8C868.7 219.7 914.3 227.3 937.2 231.2L960 235L960 301L937.2 301C914.3 301 868.7 301 823 301C777.3 301 731.7 301 686 301C640.3 301 594.7 301 548.8 301C503 301 457 301 411.2 301C365.3 301 319.7 301 274 301C228.3 301 182.7 301 137 301C91.3 301 45.7 301 22.8 301L0 301Z" fill="#00a175"></path><path d="M0 240L22.8 241.2C45.7 242.3 91.3 244.7 137 243.3C182.7 242 228.3 237 274 235C319.7 233 365.3 234 411.2 234.5C457 235 503 235 548.8 237.3C594.7 239.7 640.3 244.3 686 247C731.7 249.7 777.3 250.3 823 247.3C868.7 244.3 914.3 237.7 937.2 234.3L960 231L960 301L937.2 301C914.3 301 868.7 301 823 301C777.3 301 731.7 301 686 301C640.3 301 594.7 301 548.8 301C503 301 457 301 411.2 301C365.3 301 319.7 301 274 301C228.3 301 182.7 301 137 301C91.3 301 45.7 301 22.8 301L0 301Z" fill="#00ae76"></path><path d="M0 263L22.8 260.7C45.7 258.3 91.3 253.7 137 253.5C182.7 253.3 228.3 257.7 274 259.7C319.7 261.7 365.3 261.3 411.2 261.2C457 261 503 261 548.8 259.3C594.7 257.7 640.3 254.3 686 253.5C731.7 252.7 777.3 254.3 823 255.8C868.7 257.3 914.3 258.7 937.2 259.3L960 260L960 301L937.2 301C914.3 301 868.7 301 823 301C777.3 301 731.7 301 686 301C640.3 301 594.7 301 548.8 301C503 301 457 301 411.2 301C365.3 301 319.7 301 274 301C228.3 301 182.7 301 137 301C91.3 301 45.7 301 22.8 301L0 301Z" fill="#11bb75"></path><path d="M0 278L22.8 276.8C45.7 275.7 91.3 273.3 137 273.8C182.7 274.3 228.3 277.7 274 277.3C319.7 277 365.3 273 411.2 271.3C457 269.7 503 270.3 548.8 272C594.7 273.7 640.3 276.3 686 275.7C731.7 275 777.3 271 823 270.5C868.7 270 914.3 273 937.2 274.5L960 276L960 301L937.2 301C914.3 301 868.7 301 823 301C777.3 301 731.7 301 686 301C640.3 301 594.7 301 548.8 301C503 301 457 301 411.2 301C365.3 301 319.7 301 274 301C228.3 301 182.7 301 137 301C91.3 301 45.7 301 22.8 301L0 301Z" fill="#24c773"></path></svg>