<svg id="visual" viewBox="0 0 960 150" width="960" height="150" xmlns="http://www.w3.org/2000/svg" xmlns:xlink="http://www.w3.org/1999/xlink" version="1.1"><path d="M594 150L642 150L642 136L709 136L709 123L681 123L681 109L661 109L661 95L537 95L537 82L652 82L652 68L594 68L594 55L748 55L748 41L671 41L671 27L777 27L777 14L527 14L527 0L960 0L960 14L960 14L960 27L960 27L960 41L960 41L960 55L960 55L960 68L960 68L960 82L960 82L960 95L960 95L960 109L960 109L960 123L960 123L960 136L960 136L960 150L960 150Z" fill="#c9671e"></path><path d="M498 150L556 150L556 136L575 136L575 123L565 123L565 109L556 109L556 95L441 95L441 82L546 82L546 68L537 68L537 55L652 55L652 41L565 41L565 27L690 27L690 14L469 14L469 0L528 0L528 14L778 14L778 27L672 27L672 41L749 41L749 55L595 55L595 68L653 68L653 82L538 82L538 95L662 95L662 109L682 109L682 123L710 123L710 136L643 136L643 150L595 150Z" fill="#866c0f"></path><path d="M373 150L402 150L402 136L421 136L421 123L469 123L469 109L393 109L393 95L335 95L335 82L412 82L412 68L325 68L325 55L469 55L469 41L431 41L431 27L527 27L527 14L393 14L393 0L470 0L470 14L691 14L691 27L566 27L566 41L653 41L653 55L538 55L538 68L547 68L547 82L442 82L442 95L557 95L557 109L566 109L566 123L576 123L576 136L557 136L557 150L499 150Z" fill="#516328"></path><path d="M162 150L153 150L153 136L220 136L220 123L229 123L229 109L249 109L249 95L143 95L143 82L210 82L210 68L172 68L172 55L210 55L210 41L95 41L95 27L172 27L172 14L210 14L210 0L394 0L394 14L528 14L528 27L432 27L432 41L470 41L470 55L326 55L326 68L413 68L413 82L336 82L336 95L394 95L394 109L470 109L470 123L422 123L422 136L403 136L403 150L374 150Z" fill="#32523a"></path><path d="M0 150L0 150L0 136L0 136L0 123L0 123L0 109L0 109L0 95L0 95L0 82L0 82L0 68L0 68L0 55L0 55L0 41L0 41L0 27L0 27L0 14L0 14L0 0L211 0L211 14L173 14L173 27L96 27L96 41L211 41L211 55L173 55L173 68L211 68L211 82L144 82L144 95L250 95L250 109L230 109L230 123L221 123L221 136L154 136L154 150L163 150Z" fill="#2f3d3a"></path></svg>