<svg id="visual" viewBox="0 0 960 150" width="960" height="150" xmlns="http://www.w3.org/2000/svg" xmlns:xlink="http://www.w3.org/1999/xlink" version="1.1"><path d="M594 150L594 150L594 136L709 136L709 123L623 123L623 109L767 109L767 95L757 95L757 82L681 82L681 68L748 68L748 55L815 55L815 41L777 41L777 27L777 27L777 14L834 14L834 0L960 0L960 14L960 14L960 27L960 27L960 41L960 41L960 55L960 55L960 68L960 68L960 82L960 82L960 95L960 95L960 109L960 109L960 123L960 123L960 136L960 136L960 150L960 150Z" fill="#cede27"></path><path d="M412 150L508 150L508 136L489 136L489 123L393 123L393 109L671 109L671 95L565 95L565 82L565 82L565 68L604 68L604 55L709 55L709 41L517 41L517 27L623 27L623 14L633 14L633 0L835 0L835 14L778 14L778 27L778 27L778 41L816 41L816 55L749 55L749 68L682 68L682 82L758 82L758 95L768 95L768 109L624 109L624 123L710 123L710 136L595 136L595 150L595 150Z" fill="#7ab33f"></path><path d="M325 150L345 150L345 136L297 136L297 123L239 123L239 109L594 109L594 95L421 95L421 82L460 82L460 68L517 68L517 55L517 55L517 41L383 41L383 27L421 27L421 14L489 14L489 0L634 0L634 14L624 14L624 27L518 27L518 41L710 41L710 55L605 55L605 68L566 68L566 82L566 82L566 95L672 95L672 109L394 109L394 123L490 123L490 136L509 136L509 150L413 150Z" fill="#3b8546"></path><path d="M239 150L229 150L229 136L162 136L162 123L172 123L172 109L460 109L460 95L268 95L268 82L393 82L393 68L421 68L421 55L364 55L364 41L306 41L306 27L345 27L345 14L325 14L325 0L490 0L490 14L422 14L422 27L384 27L384 41L518 41L518 55L518 55L518 68L461 68L461 82L422 82L422 95L595 95L595 109L240 109L240 123L298 123L298 136L346 136L346 150L326 150Z" fill="#16553d"></path><path d="M0 150L0 150L0 136L0 136L0 123L0 123L0 109L0 109L0 95L0 95L0 82L0 82L0 68L0 68L0 55L0 55L0 41L0 41L0 27L0 27L0 14L0 14L0 0L326 0L326 14L346 14L346 27L307 27L307 41L365 41L365 55L422 55L422 68L394 68L394 82L269 82L269 95L461 95L461 109L173 109L173 123L163 123L163 136L230 136L230 150L240 150Z" fill="#132824"></path></svg>